<?xml version="1.0" encoding="UTF-8" standalone="no"?>
<svg width="160px" height="100px" viewBox="0 0 160 100" version="1.1" xmlns="http://www.w3.org/2000/svg" xmlns:xlink="http://www.w3.org/1999/xlink">
    <!-- Generator: Sketch 41.2 (35397) - http://www.bohemiancoding.com/sketch -->
    <title>Nance</title>
    <desc>Created with Sketch.</desc>
    <defs></defs>
    <g id="Page-1" stroke="none" stroke-width="1" fill="none" fill-rule="evenodd">
        <text id="Nance" font-family="Optima-Regular, Optima" font-size="64" font-weight="normal" letter-spacing="-5" fill="#373737">
            <tspan x="-2.688" y="96">Nance</tspan>
        </text>
        <path d="M50,59 L150,59" id="Line" stroke="#373737" stroke-width="2" stroke-linecap="square"></path>
        <g id="1f989" transform="translate(70.000000, 3.000000)">
            <g id="Group">
                <ellipse id="Oval" fill="#C4EDDE" cx="30" cy="31.541" rx="22.342" ry="25.916"></ellipse>
                <polygon id="Shape" fill="#C4EDDE" points="49.958 41.467 10.042 41.467 30 14.137"></polygon>
                <path d="M45.064,48.966 L41.299,53.226 L37.531,48.966 L41.299,44.706 L45.064,48.966 Z M30,48.966 L26.233,53.226 L22.468,48.966 L26.233,44.706 L30,48.966 Z M22.468,48.966 L18.701,53.226 L14.936,48.966 L18.701,44.706 L22.468,48.966 Z" id="Shape" fill="#7AC7C4"></path>
                <polygon id="Shape" fill="#7AC7C4" points="37.531 48.966 33.767 53.226 30 48.966 33.767 44.706 37.531 48.966"></polygon>
                <g transform="translate(11.000000, 40.000000)" id="Shape" fill="#C4EDDE">
                    <path d="M30.299,4.706 L26.531,8.966 L22.767,4.706 L26.531,0.447 L30.299,4.706 Z M37.831,4.706 L34.064,8.966 L30.299,4.706 L34.064,0.447 L37.831,4.706 Z M15.233,4.706 L11.468,8.966 L7.701,4.706 L11.468,0.447 L15.233,4.706 Z M7.701,4.706 L3.936,8.966 L0.169,4.706 L3.936,0.447 L7.701,4.706 Z"></path>
                    <polygon points="22.767 4.706 19 8.966 15.233 4.706 19 0.447"></polygon>
                </g>
                <g transform="translate(14.000000, 36.000000)" id="Shape" fill="#7AC7C4">
                    <path d="M31.064,4.447 L27.299,8.706 L23.531,4.447 L27.299,0.188 L31.064,4.447 Z M16,4.447 L12.233,8.706 L8.468,4.447 L12.233,0.188 L16,4.447 Z M8.468,4.447 L4.701,8.706 L0.936,4.447 L4.701,0.188 L8.468,4.447 Z"></path>
                    <polygon points="23.531 4.447 19.767 8.706 16 4.447 19.767 0.188 23.531 4.447"></polygon>
                </g>
                <path d="M5.037,27.967 C5.037,27.967 3.497,44.971 16.122,52.464 C20.22,54.898 13.628,48.885 15.336,34.028 L5.037,27.967 Z M54.963,27.967 C54.963,27.967 56.503,44.971 43.878,52.464 C39.78,54.898 46.372,48.885 44.663,34.028 L54.963,27.967 L54.963,27.967 Z" id="Shape" fill="#F24D6A"></path>
                <g>
                    <path d="M30,0 C22.947,7.008 15,0.877 15,0.877 C19.853,9.644 30,11.25 30,11.25 C30,11.25 40.147,9.644 45,0.877 C45,0.877 37.053,7.008 30,8.8817842e-16 L30,0 Z" id="Shape" fill="#F73859"></path>
                    <path d="M16.765,37.39 C7.521,37.39 0,29.869 0,20.625 C0,11.381 7.521,3.86 16.765,3.86 C26.009,3.86 33.53,11.381 33.53,20.625 C33.53,29.869 26.009,37.39 16.765,37.39 Z" id="Shape" fill="#C00424"></path>
                    <path d="M43.235,37.39 C33.991,37.39 26.47,29.869 26.47,20.625 C26.47,11.381 33.991,3.86 43.235,3.86 C52.479,3.86 60,11.381 60,20.625 C60,29.869 52.479,37.39 43.235,37.39 Z" id="Shape" fill="#C00424"></path>
                    <circle id="Oval" fill="#384259" cx="43.125" cy="20.625" r="13.125"></circle>
                    <circle id="Oval" fill="#FFFFFF" cx="43.125" cy="20.625" r="9.375"></circle>
                    <circle id="Oval" fill="#373737" cx="43.125" cy="20.625" r="5.625"></circle>
                    <g transform="translate(25.000000, 1.000000)" id="Shape" fill="#C4EDDE">
                        <path d="M5.469,6.5 C5.469,9.605 5,12.125 5,12.125 C5,12.125 4.531,9.605 4.531,6.5 C4.531,3.395 5,0.875 5,0.875 C5,0.875 5.469,3.395 5.469,6.5 Z M2.739,7.291 C3.774,9.36 4.062,11.187 4.062,11.187 C4.062,11.187 2.673,9.653 1.635,7.583 C0.6,5.514 0.312,3.687 0.312,3.687 C0.312,3.687 1.701,5.221 2.739,7.291 L2.739,7.291 Z M7.261,7.291 C6.226,9.36 5.938,11.187 5.938,11.187 C5.938,11.187 7.327,9.653 8.365,7.583 C9.4,5.514 9.688,3.687 9.688,3.687 C9.688,3.687 8.299,5.221 7.261,7.291 L7.261,7.291 Z"></path>
                    </g>
                    <circle id="Oval" fill="#384259" cx="16.875" cy="20.625" r="13.125"></circle>
                    <circle id="Oval" fill="#FFFFFF" cx="16.875" cy="20.625" r="9.375"></circle>
                    <circle id="Oval" fill="#373737" cx="16.875" cy="20.625" r="5.625"></circle>
                    <path d="M26.212,29.063 C26.212,32.29 27.688,35.169 30,37.067 C32.313,35.17 33.788,32.29 33.788,29.063 C33.788,25.836 32.313,22.956 30,21.059 C27.5994935,23.0228239 26.2087046,25.9615447 26.212,29.063 L26.212,29.063 Z" id="Shape" fill="#D48D0D"></path>
                    <path d="M30,21.059 L30,37.067 C32.313,35.17 33.788,32.29 33.788,29.063 C33.788,25.836 32.313,22.956 30,21.059 Z" id="Shape" fill="#F2B200"></path>
                </g>
                <g transform="translate(12.000000, 50.000000)" id="Shape" fill="#F2B200">
                    <path d="M4.753,2.853 C4.753,5.322 2.753,9 2.753,9 C2.753,9 0.753,5.321 0.753,2.853 C0.753,0.383 4.753,0.383 4.753,2.853 Z M11.44,2.853 C11.44,5.322 9.44,9 9.44,9 C9.44,9 7.44,5.321 7.44,2.853 C7.44,0.383 11.44,0.383 11.44,2.853 Z"></path>
                    <path d="M8.097,2.315 C8.097,5.402 6.097,10 6.097,10 C6.097,10 4.097,5.402 4.097,2.315 C4.097,-0.772 8.097,-0.771 8.097,2.315 Z"></path>
                    <g transform="translate(24.000000, 0.000000)">
                        <path d="M4.56,2.853 C4.56,5.322 2.56,9 2.56,9 C2.56,9 0.56,5.321 0.56,2.853 C0.56,0.383 4.56,0.383 4.56,2.853 Z M11.247,2.853 C11.247,5.322 9.247,9 9.247,9 C9.247,9 7.247,5.321 7.247,2.853 C7.247,0.383 11.247,0.383 11.247,2.853 Z"></path>
                        <path d="M7.903,2.315 C7.903,5.402 5.903,10 5.903,10 C5.903,10 3.903,5.402 3.903,2.315 C3.903,-0.772 7.903,-0.771 7.903,2.315 Z"></path>
                    </g>
                </g>
            </g>
        </g>
    </g>
</svg>